<?xml version="1.0" encoding="UTF-8" standalone="no"?><!DOCTYPE svg PUBLIC "-//W3C//DTD SVG 1.1//EN" "http://www.w3.org/Graphics/SVG/1.1/DTD/svg11.dtd"><svg width="100%" height="100%" viewBox="0 0 1728 1728" version="1.1" xmlns="http://www.w3.org/2000/svg" xmlns:xlink="http://www.w3.org/1999/xlink" xml:space="preserve" xmlns:serif="http://www.serif.com/" style="fill-rule:evenodd;clip-rule:evenodd;stroke-linejoin:round;stroke-miterlimit:2;"><g id="layer1"><g id="g29"><path id="path10" d="M1728,518.4l-518.4,-518.4l518.389,0l0.011,518.4Z" style="fill:#201a1c;fill-rule:nonzero;"/><path id="path11" d="M518.4,1728l-518.4,0l0,-518.4l518.4,518.4Z" style="fill:#201a1c;fill-rule:nonzero;"/></g><g id="g43"><g id="g19"><path id="path18" d="M864,144c-394.98,0 -720,325.021 -720,720c-0,394.98 325.021,720 720,720c394.98,0 720,-325.021 720,-720c0,-394.98 -325.021,-720 -720,-720Zm0,129.6c323.884,0 590.4,266.516 590.4,590.4c0,323.884 -266.516,590.4 -590.4,590.4c-323.884,0 -590.4,-266.516 -590.4,-590.4c0,-323.884 266.516,-590.4 590.4,-590.4Z" style="fill:#201a1c;fill-rule:nonzero;"/><path id="path25" d="M864,576c-157.992,0 -288,130.008 -288,288c0,157.992 130.008,288 288,288c157.992,0 288,-130.008 288,-288c0,-157.992 -130.008,-288 -288,-288Zm0,115.2c94.796,0 172.8,78.004 172.8,172.8c0,94.796 -78.004,172.8 -172.8,172.8c-94.796,0 -172.8,-78.004 -172.8,-172.8c0,-94.796 78.004,-172.8 172.8,-172.8Z" style="fill:#201a1c;fill-rule:nonzero;"/><path id="path27" d="M1127.88,194.1l-200.548,509.125c43.594,17.172 78.384,51.358 96.316,94.649l505.545,-209.407c-74.71,-180.371 -219.662,-322.815 -401.312,-394.367Z" style="fill:#201a1c;fill-rule:nonzero;"/></g><circle id="path3" cx="172.8" cy="172.8" r="172.8" style="fill:#201a1c;"/><circle id="path3-3" cx="1555.2" cy="1555.2" r="172.8" style="fill:#201a1c;"/><path id="path42" d="M518.38,1728c-236.341,-94.541 -423.839,-282.039 -518.38,-518.38l0,518.38l518.38,0Z" style="fill:#201a1c;fill-rule:nonzero;"/><path id="path40" d="M1209.62,0c236.341,94.541 423.839,282.039 518.38,518.38l-0.011,-518.38l-518.369,0Z" style="fill:#201a1c;fill-rule:nonzero;"/></g></g></svg>