<?xml version="1.0" encoding="UTF-8" standalone="no"?>
<!DOCTYPE svg PUBLIC "-//W3C//DTD SVG 1.1//EN" "http://www.w3.org/Graphics/SVG/1.1/DTD/svg11.dtd">
<svg width="100%" height="100%" viewBox="0 0 1728 1728" version="1.1" xmlns="http://www.w3.org/2000/svg" xmlns:xlink="http://www.w3.org/1999/xlink" xml:space="preserve" xmlns:serif="http://www.serif.com/" style="fill-rule:evenodd;clip-rule:evenodd;stroke-linejoin:round;stroke-miterlimit:2;">
    <g id="layer1" transform="matrix(2.834646,0,0,2.834646,0,0)">
        <g id="g29">
            <path id="path10" d="M609.6,182.88L426.72,0L609.596,0L609.6,182.88Z" style="fill-rule:nonzero;"/>
            <path id="path11" d="M182.88,609.6L0,609.6L0,426.72L182.88,609.6Z" style="fill-rule:nonzero;"/>
        </g>
        <g id="g43">
            <g id="g19">
                <path id="path18" d="M304.8,50.8C165.46,50.8 50.8,165.46 50.8,304.8C50.8,444.14 165.46,558.8 304.8,558.8C444.14,558.8 558.8,444.14 558.8,304.8C558.8,165.46 444.14,50.8 304.8,50.8ZM304.8,96.52C419.059,96.52 513.08,190.541 513.08,304.8C513.08,419.059 419.059,513.08 304.8,513.08C190.541,513.08 96.52,419.059 96.52,304.8C96.52,190.541 190.541,96.52 304.8,96.52Z" style="fill-rule:nonzero;"/>
                <path id="path25" d="M304.8,203.2C249.064,203.2 203.2,249.064 203.2,304.8C203.2,360.536 249.064,406.4 304.8,406.4C360.536,406.4 406.4,360.536 406.4,304.8C406.4,249.064 360.536,203.2 304.8,203.2ZM304.8,243.84L304.8,243.84C338.242,243.84 365.76,271.358 365.76,304.8L365.76,304.8C365.76,338.242 338.242,365.76 304.8,365.76L304.8,365.76C271.358,365.76 243.84,338.242 243.84,304.8L243.84,304.8C243.84,271.358 271.358,243.84 304.8,243.84Z" style="fill-rule:nonzero;"/>
                <path id="path27" d="M397.891,68.474L327.142,248.082C342.521,254.14 354.794,266.2 361.12,281.472L539.465,207.598C513.109,143.967 461.973,93.716 397.891,68.474Z" style="fill-rule:nonzero;"/>
            </g>
            <circle id="path3" cx="60.96" cy="60.96" r="60.96"/>
            <circle id="path3-3" cx="548.64" cy="548.64" r="60.96"/>
            <path id="path42" d="M182.873,609.6C99.497,576.248 33.352,510.103 0,426.727L0,609.6L182.873,609.6Z" style="fill-rule:nonzero;"/>
            <path id="path40" d="M426.727,0C510.103,33.352 576.248,99.497 609.6,182.873L609.596,0L426.727,0Z" style="fill-rule:nonzero;"/>
        </g>
    </g>
</svg>
